<svg width="84" height="84" viewBox="0 0 84 84" fill="none" xmlns="http://www.w3.org/2000/svg">
    <path fill-rule="evenodd" clip-rule="evenodd" d="M41.91 79.629C62.7416 79.629 79.629 62.7416 79.629 41.91C79.629 21.0784 62.7416 4.191 41.91 4.191C21.0784 4.191 4.191 21.0784 4.191 41.91C4.191 62.7416 21.0784 79.629 41.91 79.629ZM41.91 83.82C65.0563 83.82 83.82 65.0563 83.82 41.91C83.82 18.7637 65.0563 0 41.91 0C18.7637 0 0 18.7637 0 41.91C0 65.0563 18.7637 83.82 41.91 83.82Z" fill="#318A3A"/>
    <path d="M31.4325 35.6235C31.4325 37.9382 29.5562 39.8145 27.2415 39.8145C24.9268 39.8145 23.0505 37.9382 23.0505 35.6235C23.0505 33.3088 24.9268 31.4325 27.2415 31.4325C29.5562 31.4325 31.4325 33.3088 31.4325 35.6235Z" fill="#318A3A"/>
    <path d="M60.7695 35.6235C60.7695 37.9382 58.8932 39.8145 56.5785 39.8145C54.2638 39.8145 52.3875 37.9382 52.3875 35.6235C52.3875 33.3088 54.2638 31.4325 56.5785 31.4325C58.8932 31.4325 60.7695 33.3088 60.7695 35.6235Z" fill="#318A3A"/>
    <path fill-rule="evenodd" clip-rule="evenodd" d="M54.483 56.5785L55.9647 58.0602C56.783 57.2419 56.783 55.9151 55.9647 55.0968C55.15 54.2818 53.8311 54.2785 53.0117 55.0863L53.0006 55.0968C52.9849 55.1116 52.9535 55.1406 52.9065 55.1816C52.8129 55.2636 52.6572 55.3939 52.4399 55.5569C52.0051 55.8832 51.3257 56.3381 50.4026 56.7998C48.5634 57.7193 45.7389 58.674 41.91 58.674C38.0811 58.674 35.2566 57.7193 33.4174 56.7998C32.4943 56.3381 31.8149 55.8832 31.3801 55.5569C31.1628 55.3939 31.0071 55.2636 30.9134 55.1816C30.8665 55.1406 30.8351 55.1116 30.8193 55.0968L30.8082 55.0863C29.9889 54.2785 28.67 54.2818 27.8553 55.0968C27.037 55.9151 27.037 57.2419 27.8553 58.0602L29.337 56.5785C27.8553 58.0602 27.8567 58.0617 27.8567 58.0617L27.8584 58.0634L27.8618 58.0667L27.8699 58.0749L27.8913 58.0956C27.9074 58.1114 27.928 58.1311 27.9529 58.1543C28.0026 58.2008 28.0694 58.262 28.1535 58.3356C28.3217 58.4827 28.5589 58.6799 28.8655 58.9097C29.4784 59.3693 30.3707 59.9621 31.5431 60.5482C33.8949 61.7242 37.3569 62.865 41.91 62.865C46.4631 62.865 49.9251 61.7242 52.2769 60.5482C53.4493 59.9621 54.3415 59.3693 54.9545 58.9097C55.2611 58.6799 55.4983 58.4827 55.6665 58.3356C55.7506 58.262 55.8174 58.2008 55.8671 58.1543C55.892 58.1311 55.9125 58.1114 55.9287 58.0956L55.9501 58.0749L55.9582 58.0667L55.9616 58.0634L55.9633 58.0617C55.9633 58.0617 55.9647 58.0602 54.483 56.5785Z" fill="#318A3A"/>
    </svg>
    