<svg width="84" height="84" viewBox="0 0 84 84" fill="none" xmlns="http://www.w3.org/2000/svg">
<path d="M41.91 0C18.7638 0 0 18.7638 0 41.91C0 65.0562 18.7638 83.82 41.91 83.82C65.0562 83.82 83.82 65.0562 83.82 41.91C83.82 18.7638 65.0562 0 41.91 0ZM67.5935 67.5935C61.225 73.943 52.7207 77.694 43.7376 78.1157C34.7545 78.5374 25.9361 75.5996 19.0008 69.8746C12.0655 64.1496 7.51003 56.0477 6.22204 47.1474C4.93404 38.2471 7.0058 29.1861 12.0336 21.7299C17.0614 14.2737 24.6851 8.95649 33.4192 6.81426C42.1533 4.67203 51.3722 5.85828 59.2794 10.1419C67.1867 14.4255 73.2159 21.4995 76.1923 29.9857C79.1687 38.4718 78.8791 47.7621 75.3798 56.0464C73.5561 60.3631 70.9118 64.2846 67.5935 67.5935Z" fill="#3EB94A"/>
<path d="M41.91 64.262C46.7266 64.262 51.3459 62.3486 54.7518 58.9428C58.1576 55.5369 60.071 50.9176 60.071 46.101H23.749C23.749 50.9176 25.6624 55.5369 29.0682 58.9428C32.4741 62.3486 37.0934 64.262 41.91 64.262Z" fill="#3EB94A"/>
<path d="M33.1363 37.0715L36.7137 32.7785L26.543 24.3031L16.3723 32.7785L19.9497 37.0715L26.543 31.5769L33.1363 37.0715Z" fill="#3EB94A"/>
<path d="M47.1063 32.7785L50.6837 37.0715L57.277 31.5769L63.8703 37.0715L67.4477 32.7785L57.277 24.3031L47.1063 32.7785Z" fill="#3EB94A"/>
</svg>
