<svg width="84" height="84" viewBox="0 0 84 84" fill="none" xmlns="http://www.w3.org/2000/svg">
    <path fill-rule="evenodd" clip-rule="evenodd" d="M41.66 78.1125C51.3278 78.1125 60.5996 74.272 67.4358 67.4358C74.272 60.5996 78.1125 51.3278 78.1125 41.66C78.1125 31.9922 74.272 22.7204 67.4358 15.8842C60.5996 9.04802 51.3278 5.2075 41.66 5.2075C31.9922 5.2075 22.7204 9.04802 15.8842 15.8842C9.04802 22.7204 5.2075 31.9922 5.2075 41.66C5.2075 51.3278 9.04802 60.5996 15.8842 67.4358C22.7204 74.272 31.9922 78.1125 41.66 78.1125ZM41.66 83.32C52.7089 83.32 63.3053 78.9308 71.1181 71.1181C78.9308 63.3053 83.32 52.7089 83.32 41.66C83.32 30.6111 78.9308 20.0147 71.1181 12.2019C63.3053 4.38917 52.7089 0 41.66 0C30.6111 0 20.0147 4.38917 12.2019 12.2019C4.38917 20.0147 0 30.6111 0 41.66C0 52.7089 4.38917 63.3053 12.2019 71.1181C20.0147 78.9308 30.6111 83.32 41.66 83.32Z" fill="#DECD36"/>
    <path fill-rule="evenodd" clip-rule="evenodd" d="M20.83 54.6787C20.83 53.9882 21.1043 53.3259 21.5926 52.8376C22.0809 52.3493 22.7432 52.075 23.4337 52.075H59.8862C60.5768 52.075 61.2391 52.3493 61.7274 52.8376C62.2157 53.3259 62.49 53.9882 62.49 54.6787C62.49 55.3693 62.2157 56.0316 61.7274 56.5199C61.2391 57.0082 60.5768 57.2825 59.8862 57.2825H23.4337C22.7432 57.2825 22.0809 57.0082 21.5926 56.5199C21.1043 56.0316 20.83 55.3693 20.83 54.6787Z" fill="#DECD36"/>
    <path d="M36.4525 33.8487C36.4525 38.1606 34.1195 41.66 31.245 41.66C28.3705 41.66 26.0375 38.1606 26.0375 33.8487C26.0375 29.5369 28.3705 26.0375 31.245 26.0375C34.1195 26.0375 36.4525 29.5369 36.4525 33.8487ZM57.2825 33.8487C57.2825 38.1606 54.9495 41.66 52.075 41.66C49.2005 41.66 46.8675 38.1606 46.8675 33.8487C46.8675 29.5369 49.2005 26.0375 52.075 26.0375C54.9495 26.0375 57.2825 29.5369 57.2825 33.8487Z" fill="#DECD36"/>
    </svg>
    