<svg width="84" height="84" viewBox="0 0 84 84" fill="none" xmlns="http://www.w3.org/2000/svg">
    <path d="M28.6412 39.0563C31.5172 39.0563 33.8487 36.7247 33.8487 33.8488C33.8487 30.9728 31.5172 28.6413 28.6412 28.6413C25.7652 28.6413 23.4337 30.9728 23.4337 33.8488C23.4337 36.7247 25.7652 39.0563 28.6412 39.0563Z" fill="#EF7A38"/>
    <path d="M59.8863 33.8488C59.8863 36.7247 57.5549 39.0563 54.6788 39.0563C51.8027 39.0563 49.4713 36.7247 49.4713 33.8488C49.4713 30.9728 51.8027 28.6413 54.6788 28.6413C57.5549 28.6413 59.8863 30.9728 59.8863 33.8488Z" fill="#EF7A38"/>
    <path d="M60.2112 59.3155C59.0931 60.2096 57.4648 60.0336 56.5639 58.9244L56.5488 58.9072C56.5285 58.8838 56.4889 58.8385 56.4295 58.7744C56.3108 58.6463 56.1134 58.4443 55.8359 58.1917C55.2802 57.6866 54.4064 56.9836 53.1962 56.2717C50.7913 54.8563 47.0143 53.3769 41.6699 53.3769C36.3252 53.3769 32.5426 54.8568 30.1317 56.2728C28.9189 56.9851 28.0421 57.6887 27.4843 58.1943C27.2056 58.4469 27.0076 58.6495 26.8881 58.7776C26.8284 58.8416 26.7885 58.8869 26.7682 58.9104L26.7532 58.9281C25.8501 60.0357 24.221 60.2086 23.105 59.3124C21.9839 58.412 21.805 56.7732 22.7055 55.652L24.7355 57.2825C22.7055 55.652 22.7046 55.6531 22.7055 55.652L22.7093 55.6473L22.7135 55.6421L22.7235 55.6296L22.7495 55.5984L22.826 55.5078C22.8879 55.4364 22.9718 55.3417 23.078 55.2276C23.2902 55.0001 23.5921 54.6939 23.9865 54.3366C24.7748 53.6216 25.9367 52.6973 27.4942 51.7829C30.6241 49.9441 35.3086 48.1694 41.6699 48.1694C48.0314 48.1694 52.7114 49.9441 55.8374 51.7839C57.3929 52.6989 58.5526 53.6237 59.3389 54.3387C59.7326 54.6965 60.0341 55.0032 60.2456 55.2307C60.3513 55.3448 60.4351 55.4396 60.4971 55.5114L60.5731 55.602L60.5992 55.6333L60.6096 55.6458L60.6137 55.651C60.6143 55.652 60.6174 55.6557 58.5844 57.2825L60.6174 55.6557C61.5157 56.7784 61.3339 58.4172 60.2112 59.3155Z" fill="#EF7A38"/>
    <path d="M41.66 0C18.6518 0 0 18.6518 0 41.66C0 64.6683 18.6518 83.32 41.66 83.32C64.6683 83.32 83.32 64.6683 83.32 41.66C83.32 18.6518 64.6683 0 41.66 0ZM5.2075 41.66C5.2075 21.5279 21.5279 5.2075 41.66 5.2075C61.7922 5.2075 78.1125 21.5279 78.1125 41.66C78.1125 61.7922 61.7922 78.1125 41.66 78.1125C21.5279 78.1125 5.2075 61.7922 5.2075 41.66Z" fill="#EF7A38"/>
    </svg>
    