<svg width="24" height="23" viewBox="0 0 24 23" fill="none" xmlns="http://www.w3.org/2000/svg">
    <path d="M23.7942 20.6884L17.1359 14.3578C18.4997 12.5546 19.1815 10.2526 18.8206 7.79709C18.2189 3.69182 14.7293 0.43063 10.3574 0.0469603C4.46119 -0.528544 -0.552549 4.26733 0.0491003 9.94564C0.4502 14.0509 3.85954 17.4656 8.15131 18.0411C10.7183 18.3864 13.0848 17.6958 15.0101 16.4297L21.6684 22.7986C21.9491 23.0671 22.4304 23.0671 22.7112 22.7986L23.7541 21.801C24.075 21.4557 24.075 20.9953 23.7942 20.6884ZM3.01724 9.02483C3.01724 5.64854 5.90515 2.84775 9.47494 2.84775C13.0447 2.84775 15.9326 5.61017 15.9326 9.02483C15.9326 12.4395 13.0447 15.2019 9.47494 15.2019C5.90515 15.2019 3.01724 12.4779 3.01724 9.02483Z" fill="#D3D0D0"/>
</svg>   