<svg width="84" height="84" viewBox="0 0 84 84" fill="none" xmlns="http://www.w3.org/2000/svg">
    <path d="M42 48.25C32.2917 48.25 24.0417 54.3333 20.7083 62.8333H63.2917C59.9583 54.3333 51.7083 48.25 42 48.25ZM24.5833 42L29 37.5833L33.4167 42L37.8333 37.5833L33.4167 33.1667L37.8333 28.75L33.4167 24.3333L29 28.75L24.5833 24.3333L20.1667 28.75L24.5833 33.1667L20.1667 37.5833L24.5833 42ZM41.9583 0.333328C18.9583 0.333328 0.333344 18.9583 0.333344 42C0.333344 65.0417 18.9583 83.6667 41.9583 83.6667C64.9583 83.6667 83.6667 65.0417 83.6667 42C83.6667 18.9583 65 0.333328 41.9583 0.333328ZM42 75.3333C23.5833 75.3333 8.66668 60.4167 8.66668 42C8.66668 23.5833 23.5833 8.66666 42 8.66666C60.4167 8.66666 75.3333 23.5833 75.3333 42C75.3333 60.4167 60.4167 75.3333 42 75.3333ZM59.4167 24.3333L55 28.75L50.5833 24.3333L46.1667 28.75L50.5833 33.1667L46.1667 37.5833L50.5833 42L55 37.5833L59.4167 42L63.8333 37.5833L59.4167 33.1667L63.8333 28.75L59.4167 24.3333Z" fill="#D13131"/>
    </svg>
    